HIERARCHY
ROOT Hips
{
	OFFSET -3.958830 18.904000 13.208200
	CHANNELS 6 Xposition Yposition Zposition Zrotation Yrotation Xrotation 
	JOINT LHipJoint
	{
		OFFSET 0.000000 0.000000 0.000000
		CHANNELS 3 Zrotation Yrotation Xrotation
		JOINT LeftUpLeg
		{
			OFFSET 1.800000 -1.400000 0.085000
			CHANNELS 3 Zrotation Yrotation Xrotation
			JOINT LeftLeg
			{
				OFFSET 2.215000 -6.000000 0.000000
				CHANNELS 3 Zrotation Yrotation Xrotation
				JOINT LeftFoot
				{
					OFFSET 2.500000 -6.900000 0.000000
					CHANNELS 3 Zrotation Yrotation Xrotation
					JOINT LeftToeBase
					{
						OFFSET 0.200000 -0.500000 1.950000
						CHANNELS 3 Zrotation Yrotation Xrotation
						End Site
						{
							OFFSET 0.000000 0.000000 0.000000
						}
					}
				}
			}
		}
	}
	JOINT RHipJoint
	{
		OFFSET 0.000000 0.000000 0.000000
		CHANNELS 3 Zrotation Yrotation Xrotation
		JOINT RightUpLeg
		{
			OFFSET -1.800000 -1.400000 0.085000
			CHANNELS 3 Zrotation Yrotation Xrotation
			JOINT RightLeg
			{
				OFFSET -2.215000 -6.000000 0.000000
				CHANNELS 3 Zrotation Yrotation Xrotation
				JOINT RightFoot
				{
					OFFSET -2.500000 -6.900000 0.000000
					CHANNELS 3 Zrotation Yrotation Xrotation
					JOINT RightToeBase
					{
						OFFSET -0.200000 -0.500000 1.950000
						CHANNELS 3 Zrotation Yrotation Xrotation
						End Site
						{
							OFFSET 0.000000 0.000000 0.000000
						}
					}
				}
			}
		}
	}
	JOINT LowerBack
	{
		OFFSET 0.000000 0.000000 0.000000
		CHANNELS 3 Zrotation Yrotation Xrotation
		JOINT Spine
		{
			OFFSET -0.087000 1.940000 -0.288900
			CHANNELS 3 Zrotation Yrotation Xrotation
			JOINT Spine1
			{
				OFFSET 0.000000 1.950000 0.060000
				CHANNELS 3 Zrotation Yrotation Xrotation
				JOINT Neck
				{
					OFFSET 0.000000 0.000000 0.000000
					CHANNELS 3 Zrotation Yrotation Xrotation
					JOINT Neck1
					{
						OFFSET 0.000000 1.600000 0.340000
						CHANNELS 3 Zrotation Yrotation Xrotation
						JOINT Head
						{
							OFFSET 0.000000 1.667000 -0.240000
							CHANNELS 3 Zrotation Yrotation Xrotation
							End Site
							{
								OFFSET 0.000000 0.000000 0.000000
							}
						}
					}
				}
				JOINT LeftShoulder
				{
					OFFSET 0.000000 0.000000 0.000000
					CHANNELS 3 Zrotation Yrotation Xrotation
					JOINT LeftArm
					{
						OFFSET 2.700000 1.550000 -0.730000
						CHANNELS 3 Zrotation Yrotation Xrotation
						JOINT LeftForeArm
						{
							OFFSET 5.450000 0.000000 0.000000
							CHANNELS 3 Zrotation Yrotation Xrotation
							JOINT LeftHand
							{
								OFFSET 3.450000 0.000000 0.000000
								CHANNELS 3 Zrotation Yrotation Xrotation
								JOINT LeftHandIndex1
								{
									OFFSET 0.750000 0.000000 0.000000
									CHANNELS 3 Zrotation Yrotation Xrotation
									End Site
									{
										OFFSET 0.000000 0.000000 0.000000
									}
								}
							}
						}
					}
				}
				JOINT RightShoulder
				{
					OFFSET 0.000000 0.000000 0.000000
					CHANNELS 3 Zrotation Yrotation Xrotation
					JOINT RightArm
					{
						OFFSET -2.700000 1.550000 -0.730000
						CHANNELS 3 Zrotation Yrotation Xrotation
						JOINT RightForeArm
						{
							OFFSET -5.450000 0.000000 0.000000
							CHANNELS 3 Zrotation Yrotation Xrotation
							JOINT RightHand
							{
								OFFSET -3.450000 0.000000 0.000000
								CHANNELS 3 Zrotation Yrotation Xrotation
								JOINT RightHandIndex1
								{
									OFFSET -0.750000 0.000000 0.000000
									CHANNELS 3 Zrotation Yrotation Xrotation
									End Site
									{
										OFFSET 0.000000 0.000000 0.000000
									}
								}
							}
						}
					}
				}
			}
		}
	}
}
MOTION
Frames: 4
Frame Time: 0.016667
-2.055950 16.417780 -1.526020 -12.866633 -31.033489 3.575776 -15.790457 11.238686 4.258266 12.801932 -5.001956 -40.209878 -13.110125 15.541776 40.480211 -0.185005 9.342793 1.378837 0.040800 -0.098110 -0.382640 18.193851 -7.429676 4.644095 -5.967252 15.153460 -37.538325 22.819335 -31.596000 71.908841 -2.844392 -14.822744 0.224752 0.125960 0.934510 -0.070310 -3.025779 -3.841216 -9.086146 -0.324877 -0.815529 22.429022 -4.065230 1.366329 9.475290 0.082543 -10.879866 -10.385971 -26.165707 18.247217 30.524430 0.599580 7.862440 -7.345070 -12.342450 6.355923 4.277349 -47.113994 3.322956 -4.019406 161.005606 -52.557852 -162.408859 -4.048064 2.958506 0.603010 0.425660 -0.411140 0.353280 12.219271 1.929546 4.493159 32.867570 -4.094065 -7.815752 82.877793 82.247700 55.825315 2.797945 0.436799 -0.662460 0.842500 0.370980 -0.094120 
-2.064620 16.392870 -1.519110 -12.772852 -30.946311 2.542250 -15.806251 11.277431 4.256995 12.853806 -5.065710 -39.901793 -12.864311 15.894738 41.796080 -0.144671 9.579188 1.281871 0.047810 -0.106650 -0.361770 18.172559 -7.386637 4.675326 -6.616966 15.148303 -37.840726 22.887964 -32.025047 72.434536 -2.888035 -14.943289 0.184009 0.111050 0.899310 -0.053040 -2.954864 -3.935028 -9.152730 -0.994640 -0.683385 23.964580 -4.018476 1.364475 8.997760 0.340340 -10.815242 -10.273509 -26.170094 17.979282 31.147928 0.147170 7.667260 -8.247200 -13.164207 6.043666 3.893762 -46.899095 3.050071 -4.707357 160.248780 -53.989464 -161.793214 -4.034908 2.948705 0.634330 0.403630 -0.388250 0.333550 12.529241 2.242021 4.512088 32.438356 -4.194100 -8.177637 85.924416 82.380004 58.452179 2.993319 0.925142 -0.649670 0.820840 0.378950 -0.110310 
-2.085740 16.335310 -1.514970 -12.804625 -30.342739 -0.265197 -15.807146 11.384166 4.230224 13.228757 -5.147113 -38.783471 -12.208578 16.675778 44.952609 -0.006683 10.105867 1.077718 0.081090 -0.067980 -0.361820 18.148780 -7.330827 4.724702 -7.763763 15.048365 -37.859318 22.724226 -33.400417 74.544215 -3.061904 -15.354623 0.081774 0.096260 0.832490 -0.027630 -2.884085 -4.117328 -9.280244 -2.314904 -0.647745 28.948014 -4.078977 1.086947 7.150945 0.676704 -11.101146 -10.260382 -27.492980 18.419318 31.617386 1.111320 6.813730 -11.332070 -14.070813 5.240223 3.677211 -47.039287 2.508074 -5.952963 159.460358 -56.203592 -161.888111 -3.963559 2.934943 0.705880 0.322540 -0.309270 0.335090 12.845884 3.419276 4.060389 31.386988 -5.694452 -12.266193 99.309393 78.798991 69.380705 3.149508 2.043098 -0.603980 0.804980 0.377170 -0.098330 
-2.088960 16.269350 -1.500400 -13.342037 -29.630102 -2.593290 -15.749073 11.367520 4.234708 13.619289 -5.352129 -38.159717 -11.123987 17.379165 48.650083 0.141141 10.664044 0.889516 0.139170 0.009830 -0.306250 18.193959 -7.393125 4.737902 -8.669550 14.913486 -38.169906 21.747474 -33.357304 75.761914 -3.117236 -15.407947 0.061335 0.122850 0.758030 -0.055750 -3.039607 -3.913778 -9.343421 -2.025769 -1.061238 33.824358 -5.078195 0.709573 5.268909 0.885993 -11.441450 -9.802208 -28.506324 19.012831 31.642654 1.378810 6.446280 -14.266890 -15.783217 4.520612 2.945414 -46.135279 1.449669 -6.991831 160.372339 -60.459917 -165.108259 -3.874543 2.905425 0.746110 0.244140 -0.246250 0.337570 14.030938 4.212594 3.585598 29.870204 -6.801210 -15.256722 107.298719 76.414689 78.407333 2.727209 1.976553 -0.582090 0.826960 0.334490 -0.098230 
